<?xml version="1.0" encoding="UTF-8"?>
<svg xmlns="http://www.w3.org/2000/svg" aria-hidden="true">
  <!--
    Financial AI Academy system icon sprite.
    Use from a host SVG: <use href="faa-icons.svg#faa-icon-home" />.
    Accessibility belongs on the host SVG; symbols intentionally contain no titles.
  -->
  <symbol id="faa-icon-add" viewBox="0 0 24 24" fill="none" stroke="currentColor" stroke-width="1.75" stroke-linecap="round" stroke-linejoin="round">
    <circle cx="12" cy="12" r="9"/>
    <path d="M12 8v8M8 12h8"/>
  </symbol>
  <symbol id="faa-icon-ai-ml" viewBox="0 0 24 24" fill="none" stroke="currentColor" stroke-width="1.75" stroke-linecap="round" stroke-linejoin="round">
    <circle cx="5" cy="7" r="2"/>
    <circle cx="5" cy="17" r="2"/>
    <circle cx="12" cy="12" r="2.25"/>
    <circle cx="19" cy="5" r="2"/>
    <circle cx="19" cy="12" r="2"/>
    <circle cx="19" cy="19" r="2"/>
    <path d="m6.8 8 3.2 2.6M6.8 16l3.2-2.6M14 10.7l3.2-4.4M14.25 12H17M14 13.3l3.2 4.4"/>
  </symbol>
  <symbol id="faa-icon-arrow-left" viewBox="0 0 24 24" fill="none" stroke="currentColor" stroke-width="1.75" stroke-linecap="round" stroke-linejoin="round">
    <path d="M19 12H5M11 18l-6-6 6-6"/>
  </symbol>
  <symbol id="faa-icon-arrow-right" viewBox="0 0 24 24" fill="none" stroke="currentColor" stroke-width="1.75" stroke-linecap="round" stroke-linejoin="round">
    <path d="M5 12h14M13 6l6 6-6 6"/>
  </symbol>
  <symbol id="faa-icon-assessment" viewBox="0 0 24 24" fill="none" stroke="currentColor" stroke-width="1.75" stroke-linecap="round" stroke-linejoin="round">
    <rect x="5" y="4" width="14" height="17" rx="2"/>
    <path d="M9 4.5V3h6v1.5M8.5 10h7M8.5 14h2.5M8.5 18h2.5m2.5-1 1.5 1.5 3-3.5"/>
  </symbol>
  <symbol id="faa-icon-bookmark" viewBox="0 0 24 24" fill="none" stroke="currentColor" stroke-width="1.75" stroke-linecap="round" stroke-linejoin="round">
    <path d="M6.5 4.5A1.5 1.5 0 0 1 8 3h8a1.5 1.5 0 0 1 1.5 1.5V21L12 17.5 6.5 21z"/>
  </symbol>
  <symbol id="faa-icon-calendar" viewBox="0 0 24 24" fill="none" stroke="currentColor" stroke-width="1.75" stroke-linecap="round" stroke-linejoin="round">
    <rect x="3.5" y="5.5" width="17" height="15" rx="2"/>
    <path d="M8 3v5M16 3v5M3.5 10h17M8 14h.01M12 14h.01M16 14h.01M8 17.5h.01M12 17.5h.01"/>
  </symbol>
  <symbol id="faa-icon-check-circle" viewBox="0 0 24 24" fill="none" stroke="currentColor" stroke-width="1.75" stroke-linecap="round" stroke-linejoin="round">
    <circle cx="12" cy="12" r="9"/>
    <path d="m8 12 2.5 2.5L16.5 8.5"/>
  </symbol>
  <symbol id="faa-icon-chevron-down" viewBox="0 0 24 24" fill="none" stroke="currentColor" stroke-width="1.75" stroke-linecap="round" stroke-linejoin="round">
    <path d="m7 9.5 5 5 5-5"/>
  </symbol>
  <symbol id="faa-icon-citation" viewBox="0 0 24 24" fill="none" stroke="currentColor" stroke-width="1.75" stroke-linecap="round" stroke-linejoin="round">
    <path d="M9.5 7H6a2 2 0 0 0-2 2v3h5.5v5H6a2 2 0 0 1-2-2M20 7h-3.5a2 2 0 0 0-2 2v3H20v5h-3.5a2 2 0 0 1-2-2"/>
  </symbol>
  <symbol id="faa-icon-clock" viewBox="0 0 24 24" fill="none" stroke="currentColor" stroke-width="1.75" stroke-linecap="round" stroke-linejoin="round">
    <circle cx="12" cy="12" r="9"/>
    <path d="M12 7v5l3.5 2"/>
  </symbol>
  <symbol id="faa-icon-close" viewBox="0 0 24 24" fill="none" stroke="currentColor" stroke-width="1.75" stroke-linecap="round" stroke-linejoin="round">
    <path d="m6.5 6.5 11 11M17.5 6.5l-11 11"/>
  </symbol>
  <symbol id="faa-icon-copy" viewBox="0 0 24 24" fill="none" stroke="currentColor" stroke-width="1.75" stroke-linecap="round" stroke-linejoin="round">
    <rect x="8" y="8" width="11" height="12" rx="2"/>
    <path d="M16 8V6a2 2 0 0 0-2-2H6a2 2 0 0 0-2 2v10a2 2 0 0 0 2 2h2"/>
  </symbol>
  <symbol id="faa-icon-data-source" viewBox="0 0 24 24" fill="none" stroke="currentColor" stroke-width="1.75" stroke-linecap="round" stroke-linejoin="round">
    <ellipse cx="12" cy="5.5" rx="7.5" ry="3"/>
    <path d="M4.5 5.5v6c0 1.7 3.4 3 7.5 3s7.5-1.3 7.5-3v-6M4.5 11.5v6c0 1.7 3.4 3 7.5 3s7.5-1.3 7.5-3v-6"/>
  </symbol>
  <symbol id="faa-icon-download" viewBox="0 0 24 24" fill="none" stroke="currentColor" stroke-width="1.75" stroke-linecap="round" stroke-linejoin="round">
    <path d="M12 3v11m-4-4 4 4 4-4M5 17v3h14v-3"/>
  </symbol>
  <symbol id="faa-icon-edit" viewBox="0 0 24 24" fill="none" stroke="currentColor" stroke-width="1.75" stroke-linecap="round" stroke-linejoin="round">
    <path d="M13.5 6.5 17.5 10.5M5 19l1-4L16.5 4.5a1.4 1.4 0 0 1 2 0l1 1a1.4 1.4 0 0 1 0 2L9 18zM13 19h7"/>
  </symbol>
  <symbol id="faa-icon-error-circle" viewBox="0 0 24 24" fill="none" stroke="currentColor" stroke-width="1.75" stroke-linecap="round" stroke-linejoin="round">
    <circle cx="12" cy="12" r="9"/>
    <path d="M12 7.5v6M12 17h.01"/>
  </symbol>
  <symbol id="faa-icon-external-link" viewBox="0 0 24 24" fill="none" stroke="currentColor" stroke-width="1.75" stroke-linecap="round" stroke-linejoin="round">
    <path d="M14 5h5v5M19 5l-8 8M18 13v5a1 1 0 0 1-1 1H6a1 1 0 0 1-1-1V7a1 1 0 0 1 1-1h5"/>
  </symbol>
  <symbol id="faa-icon-eye" viewBox="0 0 24 24" fill="none" stroke="currentColor" stroke-width="1.75" stroke-linecap="round" stroke-linejoin="round">
    <path d="M3 12s3.3-6 9-6 9 6 9 6-3.3 6-9 6-9-6-9-6z"/>
    <circle cx="12" cy="12" r="2.5"/>
  </symbol>
  <symbol id="faa-icon-eye-off" viewBox="0 0 24 24" fill="none" stroke="currentColor" stroke-width="1.75" stroke-linecap="round" stroke-linejoin="round">
    <path d="M4 4l16 16M9.8 6.3A8 8 0 0 1 12 6c5.7 0 9 6 9 6a13.7 13.7 0 0 1-2.2 3M14.1 14.1A3 3 0 0 1 9.9 9.9M6.2 7.3A14 14 0 0 0 3 12s3.3 6 9 6a8.7 8.7 0 0 0 3.1-.6"/>
  </symbol>
  <symbol id="faa-icon-file" viewBox="0 0 24 24" fill="none" stroke="currentColor" stroke-width="1.75" stroke-linecap="round" stroke-linejoin="round">
    <path d="M6 3h8l4 4v14H6zM14 3v5h4M9 13h6M9 17h6"/>
  </symbol>
  <symbol id="faa-icon-filter" viewBox="0 0 24 24" fill="none" stroke="currentColor" stroke-width="1.75" stroke-linecap="round" stroke-linejoin="round">
    <path d="M4 5h16l-6.5 7.5V19l-3 1v-7.5z"/>
  </symbol>
  <symbol id="faa-icon-folder" viewBox="0 0 24 24" fill="none" stroke="currentColor" stroke-width="1.75" stroke-linecap="round" stroke-linejoin="round">
    <path d="M3.5 6.5h6l2 2h9v10a2 2 0 0 1-2 2h-13a2 2 0 0 1-2-2z"/>
  </symbol>
  <symbol id="faa-icon-help" viewBox="0 0 24 24" fill="none" stroke="currentColor" stroke-width="1.75" stroke-linecap="round" stroke-linejoin="round">
    <circle cx="12" cy="12" r="9"/>
    <path d="M9.5 9a2.7 2.7 0 1 1 4 2.35c-1 .6-1.5 1.1-1.5 2.15M12 17h.01"/>
  </symbol>
  <symbol id="faa-icon-home" viewBox="0 0 24 24" fill="none" stroke="currentColor" stroke-width="1.75" stroke-linecap="round" stroke-linejoin="round">
    <path d="m3 11 9-8 9 8M5 10v10h14V10M9 20v-6h6v6"/>
  </symbol>
  <symbol id="faa-icon-info-circle" viewBox="0 0 24 24" fill="none" stroke="currentColor" stroke-width="1.75" stroke-linecap="round" stroke-linejoin="round">
    <circle cx="12" cy="12" r="9"/>
    <path d="M12 11v6M12 7.5h.01"/>
  </symbol>
  <symbol id="faa-icon-integrations" viewBox="0 0 24 24" fill="none" stroke="currentColor" stroke-width="1.75" stroke-linecap="round" stroke-linejoin="round">
    <path d="M8 3v5M12 3v5M6 8h8v3a4 4 0 0 1-4 4v3M10 18h5"/>
    <circle cx="18" cy="18" r="3"/>
    <path d="M18 15v-3"/>
  </symbol>
  <symbol id="faa-icon-labs" viewBox="0 0 24 24" fill="none" stroke="currentColor" stroke-width="1.75" stroke-linecap="round" stroke-linejoin="round">
    <path d="M9 3h6M10 3v6l-5.5 9.2A1.8 1.8 0 0 0 6 21h12a1.8 1.8 0 0 0 1.5-2.8L14 9V3M7.5 14h9M9.5 17h.01M13.5 18.5h.01"/>
  </symbol>
  <symbol id="faa-icon-learn" viewBox="0 0 24 24" fill="none" stroke="currentColor" stroke-width="1.75" stroke-linecap="round" stroke-linejoin="round">
    <path d="M3.5 5.5A8 8 0 0 1 12 7.5v13a8 8 0 0 0-8.5-2zM20.5 5.5A8 8 0 0 0 12 7.5v13a8 8 0 0 1 8.5-2z"/>
    <path d="M12 7.5v13"/>
  </symbol>
  <symbol id="faa-icon-learning-path" viewBox="0 0 24 24" fill="none" stroke="currentColor" stroke-width="1.75" stroke-linecap="round" stroke-linejoin="round">
    <circle cx="6" cy="18" r="2.5"/>
    <circle cx="18" cy="6" r="2.5"/>
    <path d="M8.5 18h2a3 3 0 0 0 3-3V9a3 3 0 0 1 3-3h-1M11 12l2.5 3L16 12"/>
  </symbol>
  <symbol id="faa-icon-library" viewBox="0 0 24 24" fill="none" stroke="currentColor" stroke-width="1.75" stroke-linecap="round" stroke-linejoin="round">
    <rect x="3.5" y="4" width="4" height="16" rx="1"/>
    <rect x="9" y="4" width="4" height="16" rx="1"/>
    <path d="m15 5 3.5-1 3 14-3.5 1zM4.5 8h2M10 8h2"/>
  </symbol>
  <symbol id="faa-icon-lock" viewBox="0 0 24 24" fill="none" stroke="currentColor" stroke-width="1.75" stroke-linecap="round" stroke-linejoin="round">
    <rect x="5" y="10" width="14" height="11" rx="2"/>
    <path d="M8 10V7a4 4 0 0 1 8 0v3M12 14v3"/>
  </symbol>
  <symbol id="faa-icon-market-data" viewBox="0 0 24 24" fill="none" stroke="currentColor" stroke-width="1.75" stroke-linecap="round" stroke-linejoin="round">
    <path d="M4 4v16h16"/>
    <path d="m7 16 3.5-4 3 2 4.5-7M17 7h1v3"/>
  </symbol>
  <symbol id="faa-icon-menu" viewBox="0 0 24 24" fill="none" stroke="currentColor" stroke-width="1.75" stroke-linecap="round" stroke-linejoin="round">
    <path d="M4 7h16M4 12h16M4 17h16"/>
  </symbol>
  <symbol id="faa-icon-more-horizontal" viewBox="0 0 24 24" fill="none" stroke="currentColor" stroke-width="1.75" stroke-linecap="round" stroke-linejoin="round">
    <circle cx="5" cy="12" r="1"/>
    <circle cx="12" cy="12" r="1"/>
    <circle cx="19" cy="12" r="1"/>
  </symbol>
  <symbol id="faa-icon-notebook" viewBox="0 0 24 24" fill="none" stroke="currentColor" stroke-width="1.75" stroke-linecap="round" stroke-linejoin="round">
    <rect x="5" y="3" width="15" height="18" rx="2"/>
    <path d="M9 3v18M3 7h4M3 12h4M3 17h4M12 8h5M12 12h5"/>
  </symbol>
  <symbol id="faa-icon-notification" viewBox="0 0 24 24" fill="none" stroke="currentColor" stroke-width="1.75" stroke-linecap="round" stroke-linejoin="round">
    <path d="M6 9a6 6 0 0 1 12 0c0 6 2.5 6 2.5 8H3.5C3.5 15 6 15 6 9zM9.5 20h5"/>
  </symbol>
  <symbol id="faa-icon-play" viewBox="0 0 24 24" fill="none" stroke="currentColor" stroke-width="1.75" stroke-linecap="round" stroke-linejoin="round">
    <circle cx="12" cy="12" r="9"/>
    <path d="m10 8 6 4-6 4z"/>
  </symbol>
  <symbol id="faa-icon-portfolio" viewBox="0 0 24 24" fill="none" stroke="currentColor" stroke-width="1.75" stroke-linecap="round" stroke-linejoin="round">
    <path d="M11 3.5A8.5 8.5 0 1 0 20.5 13H11z"/>
    <path d="M14 3.5A6.5 6.5 0 0 1 20.5 10H14z"/>
  </symbol>
  <symbol id="faa-icon-practice" viewBox="0 0 24 24" fill="none" stroke="currentColor" stroke-width="1.75" stroke-linecap="round" stroke-linejoin="round">
    <path d="m5 17 1-4L16.5 2.5l4 4L10 17zM14.5 4.5l4 4M4 21h16"/>
  </symbol>
  <symbol id="faa-icon-profile" viewBox="0 0 24 24" fill="none" stroke="currentColor" stroke-width="1.75" stroke-linecap="round" stroke-linejoin="round">
    <circle cx="12" cy="12" r="9"/>
    <circle cx="12" cy="9" r="3"/>
    <path d="M6.5 18a6.5 6.5 0 0 1 11 0"/>
  </symbol>
  <symbol id="faa-icon-progress" viewBox="0 0 24 24" fill="none" stroke="currentColor" stroke-width="1.75" stroke-linecap="round" stroke-linejoin="round">
    <path d="M4 20V10h4v10M10 20V5h4v15M16 20v-7h4v7M3 20h18"/>
  </symbol>
  <symbol id="faa-icon-projects" viewBox="0 0 24 24" fill="none" stroke="currentColor" stroke-width="1.75" stroke-linecap="round" stroke-linejoin="round">
    <rect x="3" y="7" width="18" height="13" rx="2"/>
    <path d="M8 7V4h8v3M3 12h18M10 12v2h4v-2"/>
  </symbol>
  <symbol id="faa-icon-refresh" viewBox="0 0 24 24" fill="none" stroke="currentColor" stroke-width="1.75" stroke-linecap="round" stroke-linejoin="round">
    <path d="M20 7v5h-5M4 17v-5h5M18.2 12a7 7 0 0 0-11.9-4.9L4 9M5.8 12a7 7 0 0 0 11.9 4.9L20 15"/>
  </symbol>
  <symbol id="faa-icon-save" viewBox="0 0 24 24" fill="none" stroke="currentColor" stroke-width="1.75" stroke-linecap="round" stroke-linejoin="round">
    <path d="M4 3h13l3 3v15H4zM8 3v6h8V3M8 21v-7h8v7"/>
  </symbol>
  <symbol id="faa-icon-search" viewBox="0 0 24 24" fill="none" stroke="currentColor" stroke-width="1.75" stroke-linecap="round" stroke-linejoin="round">
    <circle cx="10.5" cy="10.5" r="6.5"/>
    <path d="m15.5 15.5 5 5"/>
  </symbol>
  <symbol id="faa-icon-settings" viewBox="0 0 24 24" fill="none" stroke="currentColor" stroke-width="1.75" stroke-linecap="round" stroke-linejoin="round">
    <circle cx="12" cy="12" r="3"/>
    <circle cx="12" cy="12" r="7"/>
    <path d="M12 2v3M12 19v3M2 12h3M19 12h3M4.9 4.9 7 7M17 17l2.1 2.1M19.1 4.9 17 7M7 17l-2.1 2.1"/>
  </symbol>
  <symbol id="faa-icon-shield-check" viewBox="0 0 24 24" fill="none" stroke="currentColor" stroke-width="1.75" stroke-linecap="round" stroke-linejoin="round">
    <path d="M12 3 20 6v5c0 5-3.2 8.3-8 10-4.8-1.7-8-5-8-10V6z"/>
    <path d="m8.5 12 2.2 2.2 4.8-5"/>
  </symbol>
  <symbol id="faa-icon-sort" viewBox="0 0 24 24" fill="none" stroke="currentColor" stroke-width="1.75" stroke-linecap="round" stroke-linejoin="round">
    <path d="M8 4v16M5 7l3-3 3 3M16 20V4M13 17l3 3 3-3"/>
  </symbol>
  <symbol id="faa-icon-star" viewBox="0 0 24 24" fill="none" stroke="currentColor" stroke-width="1.75" stroke-linecap="round" stroke-linejoin="round">
    <path d="m12 3 2.7 5.6 6.1.9-4.4 4.3 1 6.2-5.4-2.9L6.6 20l1-6.2-4.4-4.3 6.1-.9z"/>
  </symbol>
  <symbol id="faa-icon-target" viewBox="0 0 24 24" fill="none" stroke="currentColor" stroke-width="1.75" stroke-linecap="round" stroke-linejoin="round">
    <circle cx="12" cy="12" r="9"/>
    <circle cx="12" cy="12" r="5"/>
    <circle cx="12" cy="12" r="1"/>
    <path d="m15.5 8.5 5-5M17 3.5h3.5V7"/>
  </symbol>
  <symbol id="faa-icon-theme" viewBox="0 0 24 24" fill="none" stroke="currentColor" stroke-width="1.75" stroke-linecap="round" stroke-linejoin="round">
    <circle cx="8" cy="10" r="3"/>
    <path d="M8 3v2M8 15v2M1 10h2M13 10h2M3 5l1.5 1.5M11.5 13.5 13 15M13 5l-1.5 1.5M4.5 13.5 3 15"/>
    <path d="M20.5 11.5A6 6 0 0 1 13 20a6 6 0 0 0 7.5-8.5z"/>
  </symbol>
  <symbol id="faa-icon-trash" viewBox="0 0 24 24" fill="none" stroke="currentColor" stroke-width="1.75" stroke-linecap="round" stroke-linejoin="round">
    <path d="M4 7h16M9 3h6l1 4M6 7l1 14h10l1-14M10 11v6M14 11v6"/>
  </symbol>
  <symbol id="faa-icon-upload" viewBox="0 0 24 24" fill="none" stroke="currentColor" stroke-width="1.75" stroke-linecap="round" stroke-linejoin="round">
    <path d="M12 15V4m-4 4 4-4 4 4M5 17v3h14v-3"/>
  </symbol>
  <symbol id="faa-icon-warning-triangle" viewBox="0 0 24 24" fill="none" stroke="currentColor" stroke-width="1.75" stroke-linecap="round" stroke-linejoin="round">
    <path d="M10.4 4.5a1.8 1.8 0 0 1 3.2 0l7.1 13A1.7 1.7 0 0 1 19.2 20H4.8a1.7 1.7 0 0 1-1.5-2.5z"/>
    <path d="M12 9v5M12 17h.01"/>
  </symbol>
  <symbol id="faa-icon-workspace" viewBox="0 0 24 24" fill="none" stroke="currentColor" stroke-width="1.75" stroke-linecap="round" stroke-linejoin="round">
    <rect x="5" y="3" width="14" height="14" rx="2"/>
    <path d="M8 7h8M8 11h5M3 7v12a2 2 0 0 0 2 2h12"/>
  </symbol>
</svg>
